<?xml version="1.0" encoding="UTF-8"?><svg xmlns="http://www.w3.org/2000/svg" viewBox="0 0 32 32"><g id="a"/><g id="b"/><g id="c"/><g id="d"/><g id="e"/><g id="f"/><g id="g"/><g id="h"><g><path d="M6,28c-.5522,0-1-.4478-1-1V5c0-1.6543,1.3457-3,3-3H26c.5522,0,1,.4478,1,1V25c0,.5522-.4478,1-1,1s-1-.4478-1-1V4H8c-.5513,0-1,.4487-1,1V27c0,.5522-.4478,1-1,1Z"/><path d="M26,30H8c-1.6543,0-3-1.3457-3-3s1.3457-3,3-3H26c.4043,0,.769,.2437,.9238,.6172,.1548,.374,.0693,.8037-.2168,1.0898-.3452,.3452-.5356,.8047-.5356,1.293s.1904,.9478,.5356,1.293c.2861,.2861,.3716,.7158,.2168,1.0898-.1548,.3735-.5195,.6172-.9238,.6172Zm-18-4c-.5513,0-1,.4487-1,1s.4487,1,1,1H24.3052c-.1758-.6543-.1758-1.3457,0-2H8Z"/><path d="M22,10H10c-.5522,0-1-.4478-1-1s.4478-1,1-1h12c.5522,0,1,.4478,1,1s-.4478,1-1,1Z"/><path d="M22,14H10c-.5522,0-1-.4478-1-1s.4478-1,1-1h12c.5522,0,1,.4478,1,1s-.4478,1-1,1Z"/></g></g><g id="i"/><g id="j"/><g id="k"/><g id="l"/><g id="m"/><g id="n"/><g id="o"/><g id="p"/><g id="q"/><g id="r"/><g id="s"/><g id="t"/><g id="u"/><g id="v"/><g id="w"/><g id="x"/><g id="y"/><g id="a`"/><g id="aa"/><g id="ab"/><g id="ac"/><g id="ad"/><g id="ae"/></svg>