<svg  viewBox="0 0 53 52" fill="none" xmlns="http://www.w3.org/2000/svg">
<path d="M28.3837 46.3481L17.5251 35.4895C17.1129 35.0773 16.8813 34.5182 16.8813 33.9353C16.8813 33.3523 17.1129 32.7933 17.5251 32.3811V32.3811C17.9373 31.9689 18.4964 31.7373 19.0793 31.7373C19.6623 31.7373 20.2213 31.9689 20.6335 32.3811L31.4929 43.239C31.9051 43.6512 32.1366 44.2102 32.1366 44.7932C32.1366 45.3761 31.9051 45.9352 31.4929 46.3474V46.3474C31.2888 46.5516 31.0465 46.7137 30.7798 46.8243C30.5131 46.9348 30.2272 46.9918 29.9385 46.9919C29.6497 46.9919 29.3638 46.9351 29.097 46.8247C28.8303 46.7142 28.5879 46.5523 28.3837 46.3481V46.3481Z" stroke="#910811" stroke-width="2" stroke-miterlimit="10" stroke-linejoin="round"/>
<path d="M43.9052 30.8256L33.0466 19.967C32.6344 19.5548 32.4028 18.9957 32.4028 18.4128C32.4028 17.8299 32.6344 17.2708 33.0466 16.8586V16.8586C33.4588 16.4464 34.0179 16.2148 34.6008 16.2148C35.1837 16.2148 35.7428 16.4464 36.155 16.8586L47.0144 27.7165C47.4266 28.1287 47.6581 28.6878 47.6581 29.2707C47.6581 29.8536 47.4266 30.4127 47.0144 30.8249V30.8249C46.8103 31.0292 46.568 31.1912 46.3013 31.3018C46.0346 31.4124 45.7487 31.4693 45.4599 31.4694C45.1712 31.4695 44.8853 31.4127 44.6185 31.3022C44.3518 31.1917 44.1094 31.0298 43.9052 30.8256V30.8256Z" stroke="#910811" stroke-width="2" stroke-miterlimit="10" stroke-linejoin="round"/>
<path d="M33.8227 20.7422L21.4097 33.1553L30.7174 42.463L43.1305 30.0499L33.8227 20.7422Z" stroke="#910811" stroke-width="2" stroke-miterlimit="10" stroke-linejoin="round"/>
<path d="M39.2533 33.9346L40.8079 35.4891C41.2201 35.9013 41.4516 36.4604 41.4516 37.0433C41.4516 37.6263 41.2201 38.1853 40.8079 38.5975L39.2533 40.1521C38.8411 40.5643 38.282 40.7959 37.6991 40.7959C37.1162 40.7959 36.5571 40.5643 36.1449 40.1521L34.5903 38.5975" stroke="#910811" stroke-width="2" stroke-miterlimit="10" stroke-linejoin="round"/>
<path d="M41.5791 37.8037L51.6666 47.8905L48.5582 50.9989L38.4707 40.9121" stroke="#910811" stroke-width="2" stroke-miterlimit="10" stroke-linejoin="round"/>
<path d="M6.01433 51C5.44331 51.0002 4.87785 50.8879 4.35026 50.6694C3.82267 50.451 3.3433 50.1308 2.93953 49.727C2.53575 49.3232 2.2155 48.8438 1.99707 48.3162C1.77864 47.7887 1.66631 47.2232 1.6665 46.6522V5.34783C1.66631 4.77681 1.77864 4.21135 1.99707 3.68376C2.2155 3.15617 2.53575 2.67679 2.93953 2.27302C3.3433 1.86925 3.82267 1.549 4.35026 1.33057C4.87785 1.11214 5.44331 0.999809 6.01433 1H40.7969V16.2174" stroke="#910811" stroke-width="2" stroke-miterlimit="10" stroke-linejoin="round"/>
<path d="M6.01416 1V51H40.7968V47.7391" stroke="#910811" stroke-width="2" stroke-miterlimit="10" stroke-linejoin="round"/>
<path d="M28.8405 19.478H13.6231C13.0471 19.4763 12.4952 19.2467 12.0879 18.8394C11.6805 18.4321 11.451 17.8802 11.4492 17.3041V8.60848C11.451 8.03246 11.6805 7.48052 12.0879 7.07321C12.4952 6.66589 13.0471 6.4363 13.6231 6.43457H33.1883C33.7644 6.4363 34.3163 6.66589 34.7236 7.07321C35.1309 7.48052 35.3605 8.03246 35.3623 8.60848V12.9563" stroke="#910811" stroke-width="2" stroke-miterlimit="10" stroke-linejoin="round"/>
<path d="M15.354 11.3584H30.5845" stroke="#910811" stroke-width="2" stroke-miterlimit="10" stroke-linejoin="round"/>
<path d="M15.354 15.3662H27.3776" stroke="#910811" stroke-width="2" stroke-miterlimit="10" stroke-linejoin="round"/>
</svg>
