<?xml version="1.0" encoding="UTF-8"?><svg xmlns="http://www.w3.org/2000/svg" viewBox="0 0 32 32"><g id="a"/><g id="b"/><g id="c"/><g id="d"/><g id="e"/><g id="f"/><g id="g"/><g id="h"/><g id="i"><g><path d="M16,24c-.1934,0-.3867-.0562-.5547-.168-2.7021-1.8013-6.4097-1.832-6.4468-1.832-.5513-.0015-.9985-.4487-.9985-1V12.8501h2v7.2036c1.3467,.1206,3.8188,.5103,6,1.77,2.1807-1.2598,4.6533-1.6494,6-1.77v-7.2036h2v8.1499c0,.5513-.4473,.9985-.999,1-.0371,0-3.7441,.0308-6.4463,1.832-.168,.1118-.3613,.168-.5547,.168Z"/><path d="M7.832,24.4453l-1.832-2.748V11.6201h-2v10.0771l-1.832,2.748c-.3062,.4595-.1821,1.0806,.2773,1.3867,.4595,.3057,1.0796,.1816,1.3867-.2773l1.168-1.752,1.168,1.752c.1929,.2891,.5098,.4453,.833,.4453,.1904,0,.3833-.0542,.5537-.168,.4595-.3062,.5835-.9272,.2773-1.3867Z"/><path d="M16,16c-.0991,0-.1982-.0146-.2939-.0444L2.7061,11.9556c-.4199-.1289-.7061-.5166-.7061-.9556s.2861-.8267,.7061-.9556L15.7061,6.0444c.1914-.0596,.3965-.0596,.5879,0l13,4c.4199,.1289,.7061,.5166,.7061,.9556s-.2861,.8267-.7061,.9556l-13,4c-.0957,.0298-.1948,.0444-.2939,.0444ZM6.4004,11l9.5996,2.9536,9.5996-2.9536-9.5996-2.9536-9.5996,2.9536Z"/></g></g><g id="j"/><g id="k"/><g id="l"/><g id="m"/><g id="n"/><g id="o"/><g id="p"/><g id="q"/><g id="r"/><g id="s"/><g id="t"/><g id="u"/><g id="v"/><g id="w"/><g id="x"/><g id="y"/><g id="a`"/><g id="aa"/><g id="ab"/><g id="ac"/><g id="ad"/><g id="ae"/></svg>