<svg width="52" height="52" viewBox="0 0 52 52" fill="none" xmlns="http://www.w3.org/2000/svg">
<path d="M33.6086 37.957V20.6868C33.5959 20.1581 33.7697 19.6419 34.0996 19.2285C34.4295 18.8152 34.8943 18.5311 35.4126 18.4261C35.7247 18.3721 36.0449 18.3869 36.3507 18.4696C36.6564 18.5523 36.9404 18.7009 37.1827 18.9049C37.425 19.1089 37.6198 19.3634 37.7534 19.6506C37.887 19.9378 37.9562 20.2507 37.9561 20.5674V18.3919C37.956 18.0752 38.0252 17.7622 38.1588 17.4751C38.2924 17.1879 38.4872 16.9334 38.7295 16.7294C38.9718 16.5254 39.2558 16.3768 39.5616 16.2941C39.8673 16.2114 40.1875 16.1966 40.4996 16.2506C41.0179 16.3556 41.4827 16.6396 41.8126 17.053C42.1425 17.4663 42.3163 17.9826 42.3037 18.5113V20.5654C42.3037 20.2485 42.373 19.9354 42.5067 19.6481C42.6405 19.3608 42.8355 19.1063 43.078 18.9023C43.3206 18.6984 43.6048 18.5499 43.9107 18.4674C44.2167 18.3849 44.537 18.3704 44.8492 18.4247C45.3675 18.53 45.8322 18.8144 46.1619 19.228C46.4915 19.6417 46.665 20.1581 46.6519 20.6868V22.7395C46.6519 22.4227 46.721 22.1098 46.8546 21.8226C46.9882 21.5354 47.183 21.2809 47.4253 21.0769C47.6676 20.8729 47.9516 20.7244 48.2574 20.6417C48.5631 20.559 48.8833 20.5441 49.1954 20.5982C49.7137 20.7031 50.1786 20.9872 50.5084 21.4005C50.8383 21.8139 51.0121 22.3302 50.9995 22.8589V42.3052C50.9976 42.8806 50.7685 43.4319 50.3619 43.839C49.9553 44.2462 49.4042 44.4761 48.8288 44.4786H47.739" stroke="#910811" stroke-width="2" stroke-miterlimit="10" stroke-linejoin="round"/>
<path d="M37.9448 20.1758V28.9931" stroke="#910811" stroke-width="2" stroke-miterlimit="10" stroke-linejoin="round"/>
<path d="M41.9531 20.1758V28.9931" stroke="#910811" stroke-width="2" stroke-miterlimit="10" stroke-linejoin="round"/>
<path d="M46.7629 20.1758V28.9931" stroke="#910811" stroke-width="2" stroke-miterlimit="10" stroke-linejoin="round"/>
<path d="M33.6085 37.9567V32.5214C33.6086 31.9504 33.4962 31.385 33.2778 30.8575C33.0593 30.33 32.7391 29.8507 32.3354 29.447C31.9317 29.0433 31.4523 28.723 30.9248 28.5046C30.3973 28.2861 29.8319 28.1737 29.261 28.1738V28.1738V40.1301C29.261 40.1301 29.261 44.4777 33.6085 44.4777H34.6956" stroke="#910811" stroke-width="2" stroke-miterlimit="10" stroke-linejoin="round"/>
<path d="M33.6086 44.4785V51.0002H48.8289V44.4785" stroke="#910811" stroke-width="2" stroke-miterlimit="10" stroke-linejoin="round"/>
<path d="M5.34756 51C4.7766 51.0001 4.21122 50.8877 3.68371 50.6692C3.1562 50.4508 2.67689 50.1306 2.27317 49.7268C1.86944 49.3231 1.5492 48.8438 1.33075 48.3163C1.1123 47.7888 0.999908 47.2234 1 46.6524V5.34755C0.999908 4.7766 1.1123 4.21122 1.33075 3.68371C1.5492 3.1562 1.86944 2.67689 2.27317 2.27316C2.67689 1.86944 3.1562 1.5492 3.68371 1.33075C4.21122 1.1123 4.7766 0.999908 5.34756 1H40.1308V12.9563" stroke="#910811" stroke-width="2" stroke-miterlimit="10" stroke-linejoin="round"/>
<path d="M5.34766 1V51H30.348" stroke="#910811" stroke-width="2" stroke-miterlimit="10" stroke-linejoin="round"/>
<path d="M34.6963 15.1304V8.6087C34.6946 8.03259 34.465 7.48056 34.0577 7.07319C33.6503 6.66582 33.0982 6.43623 32.5221 6.43457H12.9571C12.381 6.43623 11.8289 6.66582 11.4216 7.07319C11.0142 7.48056 10.7846 8.03259 10.783 8.6087V17.3045C10.7846 17.8806 11.0142 18.4326 11.4216 18.84C11.8289 19.2474 12.381 19.477 12.9571 19.4786H30.3487" stroke="#910811" stroke-width="2" stroke-miterlimit="10" stroke-linejoin="round"/>
<path d="M14.699 11.3584H29.929" stroke="#910811" stroke-width="2" stroke-miterlimit="10" stroke-linejoin="round"/>
<path d="M14.699 15.3652H26.723" stroke="#910811" stroke-width="2" stroke-miterlimit="10" stroke-linejoin="round"/>
</svg>
