<svg width="20" height="20" viewBox="0 0 20 20" fill="none" xmlns="http://www.w3.org/2000/svg">
<path d="M6 4.9834C5.73478 4.9834 5.48043 5.08876 5.29289 5.27629C5.10536 5.46383 5 5.71818 5 5.9834C5 6.24861 5.10536 6.50297 5.29289 6.69051C5.48043 6.87804 5.73478 6.9834 6 6.9834H14C14.2652 6.9834 14.5196 6.87804 14.7071 6.69051C14.8946 6.50297 15 6.24861 15 5.9834C15 5.71818 14.8946 5.46383 14.7071 5.27629C14.5196 5.08876 14.2652 4.9834 14 4.9834H6ZM5 10.0004C5 9.73518 5.10536 9.48083 5.29289 9.29329C5.48043 9.10576 5.73478 9.0004 6 9.0004H14C14.2652 9.0004 14.5196 9.10576 14.7071 9.29329C14.8946 9.48083 15 9.73518 15 10.0004C15 10.2656 14.8946 10.52 14.7071 10.7075C14.5196 10.895 14.2652 11.0004 14 11.0004H6C5.73478 11.0004 5.48043 10.895 5.29289 10.7075C5.10536 10.52 5 10.2656 5 10.0004ZM6 13.0174C5.73478 13.0174 5.48043 13.1228 5.29289 13.3103C5.10536 13.4978 5 13.7522 5 14.0174C5 14.2826 5.10536 14.537 5.29289 14.7245C5.48043 14.912 5.73478 15.0174 6 15.0174H14C14.2652 15.0174 14.5196 14.912 14.7071 14.7245C14.8946 14.537 15 14.2826 15 14.0174C15 13.7522 14.8946 13.4978 14.7071 13.3103C14.5196 13.1228 14.2652 13.0174 14 13.0174H6Z" fill="#F2F2F2"/>
<path fill-rule="evenodd" clip-rule="evenodd" d="M20 10C20 15.523 15.523 20 10 20C4.477 20 0 15.523 0 10C0 4.477 4.477 0 10 0C15.523 0 20 4.477 20 10ZM18 10C18 12.1217 17.1571 14.1566 15.6569 15.6569C14.1566 17.1571 12.1217 18 10 18C7.87827 18 5.84344 17.1571 4.34315 15.6569C2.84285 14.1566 2 12.1217 2 10C2 7.87827 2.84285 5.84344 4.34315 4.34315C5.84344 2.84285 7.87827 2 10 2C12.1217 2 14.1566 2.84285 15.6569 4.34315C17.1571 5.84344 18 7.87827 18 10Z" fill="#F2F2F2"/>
</svg>
