<?xml version="1.0" encoding="UTF-8"?><svg xmlns="http://www.w3.org/2000/svg" viewBox="0 0 32 32"><g id="a"/><g id="b"/><g id="c"/><g id="d"/><g id="e"/><g id="f"/><g id="g"/><g id="h"/><g id="i"/><g id="j"/><g id="k"/><g id="l"/><g id="m"/><g id="n"/><g id="o"/><g id="p"/><g id="q"/><g id="r"/><g id="s"/><g id="t"/><g id="u"/><g id="v"/><g id="w"><g><path d="M21,24H6V4H22V15h2V3c0-.5527-.4478-1-1-1H5c-.5522,0-1,.4473-1,1V25c0,.5527,.4478,1,1,1H21v-2Z"/><path d="M24,22.5v4.5l-.3999-.2998c-.3555-.2676-.8447-.2676-1.2002,0l-.3999,.2998v-4.5h-2v6.5c0,.3789,.2139,.7246,.5527,.8945,.3379,.168,.7441,.1328,1.0474-.0947l1.3999-1.0498,1.3999,1.0498c.1768,.1328,.3877,.2002,.6001,.2002,.1523,0,.3057-.0352,.4473-.1055,.3389-.1699,.5527-.5156,.5527-.8945v-6.5h-2Z"/><path d="M23,24c-2.7568,0-5-2.2432-5-5s2.2432-5,5-5,5,2.2432,5,5-2.2432,5-5,5Zm0-8c-1.6543,0-3,1.3457-3,3s1.3457,3,3,3,3-1.3457,3-3-1.3457-3-3-3Z"/><circle cx="23" cy="19" r="1"/><path d="M19,12H9c-.5522,0-1-.4473-1-1s.4478-1,1-1h10c.5522,0,1,.4473,1,1s-.4478,1-1,1Z"/><path d="M19,8H9c-.5522,0-1-.4473-1-1s.4478-1,1-1h10c.5522,0,1,.4473,1,1s-.4478,1-1,1Z"/><path d="M13,22h-4c-.5522,0-1-.4473-1-1s.4478-1,1-1h4c.5522,0,1,.4473,1,1s-.4478,1-1,1Z"/></g></g><g id="x"/><g id="y"/><g id="a`"/><g id="aa"/><g id="ab"/><g id="ac"/><g id="ad"/><g id="ae"/></svg>