<svg xmlns="http://www.w3.org/2000/svg" viewBox="0 0 48 48"><title>18-court</title><g id="_18-court" data-name="18-court"><path d="M47,32H21a1,1,0,0,1-1-1V25a1,1,0,0,1,1-1H47a1,1,0,0,1,1,1v6A1,1,0,0,1,47,32ZM22,30H46V26H22Z"/><path d="M47,48H21a1,1,0,0,1-1-1V43a1,1,0,0,1,1-1H47a1,1,0,0,1,1,1v4A1,1,0,0,1,47,48ZM22,46H46V44H22Z"/><path d="M46.476,25.852,34,18.174,21.524,25.852l-1.048-1.7,13-8a1,1,0,0,1,1.048,0l13,8Z"/><rect x="22" y="31" width="2" height="12"/><rect x="26" y="31" width="2" height="12"/><rect x="31" y="31" width="2" height="12"/><rect x="35" y="31" width="2" height="12"/><rect x="40" y="31" width="2" height="12"/><rect x="44" y="31" width="2" height="12"/><rect x="23" y="38" width="4" height="2"/><rect x="32" y="38" width="4" height="2"/><rect x="41" y="38" width="4" height="2"/><path d="M5,48a5.006,5.006,0,0,1-5-5V5A5.006,5.006,0,0,1,5,0H37a1,1,0,0,1,1,1V15H36V2H5A3,3,0,0,0,2,5V43a3,3,0,0,0,3,3Z"/><path d="M18,48H5a1,1,0,0,1-1-1V1H6V46H18Z"/><path d="M25,19H12a3,3,0,0,1-3-3V8a3,3,0,0,1,3-3H30a3,3,0,0,1,3,3v7H31V8a1,1,0,0,0-1-1H12a1,1,0,0,0-1,1v8a1,1,0,0,0,1,1H25Z"/><rect x="14" y="9" width="14" height="2"/><rect x="14" y="13" width="11" height="2"/></g></svg>