<svg viewBox="0 0 53 57" fill="none" xmlns="http://www.w3.org/2000/svg">
<path d="M43.1658 46.561C47.6768 46.561 51.3336 42.7783 51.3336 38.1121C51.3336 33.4458 47.6768 29.6631 43.1658 29.6631C38.6549 29.6631 34.998 33.4458 34.998 38.1121C34.998 42.7783 38.6549 46.561 43.1658 46.561Z" stroke="#910811" stroke-width="2" stroke-miterlimit="10" stroke-linejoin="round"/>
<path d="M38.3662 45.2002V55.9515L43.1443 51.1734L47.9224 55.9515V45.2002" stroke="#910811" stroke-width="2" stroke-miterlimit="10" stroke-linejoin="round"/>
<path d="M46.7281 26.0863V3.38943C46.7263 2.75627 46.474 2.14956 46.0262 1.70185C45.5785 1.25414 44.9718 1.00181 44.3387 1H10.8905L1.3335 10.557V53.5621C1.33531 54.1953 1.58764 54.802 2.03535 55.2497C2.48306 55.6974 3.08977 55.9497 3.72293 55.9516H35.9768" stroke="#910811" stroke-width="2" stroke-miterlimit="10" stroke-linejoin="round"/>
<path d="M10.8905 1V8.16753C10.8886 8.80069 10.6363 9.40739 10.1886 9.85511C9.74089 10.3028 9.13418 10.5551 8.50102 10.557H1.3335" stroke="#910811" stroke-width="2" stroke-miterlimit="10" stroke-linejoin="round"/>
<path d="M15.8467 16.708H41.7575" stroke="#910811" stroke-width="2" stroke-miterlimit="10" stroke-linejoin="round"/>
<path d="M6.27051 22.3418H41.7566" stroke="#910811" stroke-width="2" stroke-miterlimit="10" stroke-linejoin="round"/>
<path d="M6.27051 29.0996H34.9972" stroke="#910811" stroke-width="2" stroke-miterlimit="10" stroke-linejoin="round"/>
<path d="M6.27051 34.1699H31.0543" stroke="#910811" stroke-width="2" stroke-miterlimit="10" stroke-linejoin="round"/>
<path d="M6.27051 40.9287H31.0543" stroke="#910811" stroke-width="2" stroke-miterlimit="10" stroke-linejoin="round"/>
<path d="M6.27051 46.5615H33.8708" stroke="#910811" stroke-width="2" stroke-miterlimit="10" stroke-linejoin="round"/>
<path d="M37.1709 5.77832H39.5603C40.1935 5.78013 40.8002 6.03246 41.2479 6.48017C41.6956 6.92789 41.9479 7.53459 41.9498 8.16775V10.5572" stroke="#910811" stroke-width="2" stroke-miterlimit="10" stroke-linejoin="round"/>
<path d="M34.9977 6.00586H32.1812" stroke="#910811" stroke-width="2" stroke-miterlimit="10" stroke-linejoin="round"/>
</svg>
