<svg  viewBox="0 0 75 76" fill="none" xmlns="http://www.w3.org/2000/svg">
<path d="M6.87588 27.8115L6.63156 28.4577L2.24548 24.6619L2.48398 24.0273L8.28361 24.0797L8.03929 24.726L3.17622 24.627L3.15876 24.6677L6.87006 27.8115H6.87588ZM4.97951 26.8218L5.96259 24.2136L6.5094 24.4174L5.52631 27.0256L4.97951 26.816V26.8218Z" fill="#121212"/>
<path d="M7.92297 17.2859C7.74264 17.2393 7.56232 17.2219 7.39362 17.2277C7.22492 17.2277 7.06205 17.2626 6.90499 17.3208C6.74792 17.379 6.60831 17.4605 6.47452 17.5712C6.34073 17.6818 6.22439 17.8215 6.11968 17.9903C5.95099 18.264 5.86373 18.555 5.86373 18.8694C5.86373 19.1838 5.96262 19.4924 6.15458 19.7951C6.34655 20.0978 6.64322 20.3773 7.0446 20.6276C7.44597 20.878 7.82408 21.0235 8.18474 21.0584C8.5454 21.0992 8.86534 21.0468 9.15038 20.9071C9.43541 20.7673 9.66228 20.5519 9.84261 20.2667C10.0055 20.0047 10.0986 19.7311 10.1102 19.4574C10.1218 19.1838 10.0578 18.9276 9.92405 18.6831C9.78444 18.4386 9.57502 18.229 9.2958 18.0544L9.44123 17.903L8.57449 19.2944L8.08004 18.9859L9.17946 17.2277L9.67391 17.5362C10.052 17.7749 10.3371 18.0602 10.5174 18.3979C10.6977 18.7355 10.7733 19.0965 10.7559 19.4749C10.7384 19.8533 10.6105 20.2259 10.3778 20.5927C10.1218 21.0002 9.80189 21.3029 9.41796 21.4892C9.03404 21.6755 8.60939 21.7454 8.14402 21.6988C7.68447 21.6523 7.20747 21.4718 6.71884 21.169C6.35236 20.942 6.05569 20.6858 5.82301 20.4064C5.59033 20.1269 5.43327 19.83 5.33437 19.5215C5.2413 19.2129 5.21803 18.8985 5.25875 18.5842C5.30529 18.2698 5.41581 17.9612 5.60196 17.6643C5.7532 17.4198 5.93353 17.216 6.13713 17.0472C6.34073 16.8842 6.56178 16.7561 6.80028 16.6746C7.03878 16.5931 7.2831 16.5523 7.53323 16.5582C7.78336 16.564 8.03932 16.6106 8.28945 16.7095L7.92879 17.2859H7.92297Z" fill="#121212"/>
<path d="M13.0127 16.7781L12.5357 17.2787L9.94714 12.0857L10.4125 11.5908L15.741 13.873L15.264 14.3737L10.8139 12.4117L10.7848 12.4408L13.0011 16.7722L13.0127 16.7781ZM11.6399 15.1305L13.5537 13.1045L13.9784 13.5062L12.0646 15.5322L11.6399 15.1305Z" fill="#121212"/>
<path d="M17.3814 12.5289L14.2053 8.10435L15.7003 7.02732C16.0493 6.77698 16.3751 6.63725 16.6834 6.60232C16.9917 6.56739 17.2767 6.61979 17.5385 6.75369C17.7945 6.88759 18.0213 7.08553 18.2075 7.34752C18.3936 7.6095 18.51 7.88312 18.5623 8.17421C18.6088 8.46531 18.5681 8.75057 18.4402 9.03584C18.3122 9.32111 18.0737 9.58892 17.7305 9.83343L16.6601 10.6019L16.3169 10.1245L17.3698 9.36769C17.6083 9.19885 17.7712 9.01838 17.8526 8.83208C17.9399 8.64578 17.9632 8.45948 17.9283 8.27319C17.8933 8.08689 17.8119 7.90059 17.6839 7.72593C17.556 7.55128 17.4105 7.41156 17.2418 7.32423C17.0731 7.23108 16.8928 7.19615 16.6892 7.22526C16.4856 7.25437 16.2646 7.34752 16.0261 7.52217L15.0837 8.1975L17.9224 12.1447L17.3873 12.5289H17.3814Z" fill="#121212"/>
<path d="M22.3957 9.2209L20.0747 4.29564L23.0472 2.89258L23.2974 3.42236L20.924 4.54015L21.7093 6.20519L23.9314 5.15727L24.1816 5.68705L21.9594 6.73498L22.7506 8.41166L25.1646 7.27641L25.4148 7.80619L22.4074 9.22672L22.3957 9.2209Z" fill="#121212"/>
<path d="M34.856 1.77524L34.2045 1.86257C34.1405 1.68209 34.0474 1.5249 33.9369 1.39682C33.8264 1.26874 33.6868 1.16395 33.5413 1.08244C33.3959 1.00094 33.233 0.94854 33.0585 0.925253C32.8898 0.896144 32.7095 0.896144 32.535 0.925253C32.2092 0.971827 31.9242 1.09409 31.6857 1.29203C31.4472 1.48997 31.2669 1.76359 31.1563 2.10708C31.0458 2.45057 31.0226 2.85228 31.0865 3.32384C31.1505 3.79541 31.2843 4.17383 31.4821 4.47656C31.6799 4.7793 31.9242 4.98888 32.2092 5.11696C32.4943 5.24504 32.8026 5.2858 33.1283 5.24504C33.3087 5.22176 33.4774 5.17518 33.6344 5.0995C33.7915 5.02964 33.9311 4.93066 34.0533 4.82005C34.1754 4.70361 34.2743 4.56971 34.3499 4.41252C34.4255 4.25533 34.4721 4.08068 34.4837 3.88856L35.1352 3.80123C35.1236 4.0865 35.0712 4.34266 34.9665 4.57553C34.8676 4.81423 34.728 5.01799 34.5593 5.19847C34.3906 5.37894 34.187 5.52449 33.9602 5.6351C33.7333 5.74572 33.4832 5.8214 33.2098 5.86216C32.7502 5.9262 32.3256 5.86798 31.9358 5.69332C31.5461 5.51867 31.2203 5.23922 30.9586 4.84916C30.6968 4.4591 30.5281 3.98753 30.4467 3.41699C30.3652 2.84645 30.4059 2.33995 30.5514 1.8975C30.6968 1.45504 30.9353 1.09409 31.2669 0.82046C31.5926 0.546834 31.9882 0.378002 32.4477 0.313962C32.7211 0.279031 32.9829 0.279031 33.233 0.325605C33.4832 0.37218 33.7159 0.459507 33.9311 0.581765C34.1463 0.709845 34.3325 0.867035 34.4895 1.0708C34.6466 1.26874 34.7746 1.50743 34.8618 1.77524H34.856Z" fill="#121212"/>
<path d="M37.6598 5.43176L38.0437 0L38.701 0.0465746L38.5324 2.46845L41.4293 2.67222L41.598 0.250338L42.2553 0.296913L41.8714 5.72867L41.214 5.6821L41.3827 3.2544L38.4858 3.05063L38.3171 5.47833L37.6598 5.43176Z" fill="#121212"/>
<path d="M44.4018 6.2005L45.8561 0.949219L47.6303 1.43825C48.0375 1.55469 48.3574 1.7177 48.5785 1.92728C48.8053 2.13687 48.9449 2.38721 49.0031 2.66083C49.0613 2.93446 49.0497 3.23137 48.9624 3.53993C48.8751 3.84848 48.7355 4.10465 48.5436 4.30841C48.3516 4.51217 48.1073 4.64607 47.8048 4.71011C47.5023 4.77415 47.1533 4.75087 46.7461 4.63443L45.3093 4.23855L45.4663 3.66219L46.8799 4.05225C47.1591 4.12793 47.3976 4.15122 47.5896 4.11629C47.7815 4.08136 47.9386 3.99985 48.0608 3.87177C48.1829 3.74369 48.2702 3.57486 48.3283 3.35945C48.3865 3.14987 48.3981 2.95192 48.3632 2.77727C48.3283 2.59679 48.2353 2.4396 48.0898 2.3057C47.9444 2.1718 47.7234 2.06701 47.4441 1.9855L46.3273 1.67695L45.0301 6.36351L44.396 6.18886L44.4018 6.2005ZM47.5198 4.52964L48.1596 7.24843L47.4209 7.04466L46.8043 4.3317L47.5198 4.52964Z" fill="#121212"/>
<path d="M52.9876 3.40648L50.7771 8.38413L50.1721 8.11633L52.3826 3.13867L52.9876 3.40648Z" fill="#121212"/>
<path d="M57.8395 7.67247C57.9558 7.42796 57.9617 7.18344 57.8453 6.9331C57.7348 6.68859 57.537 6.47318 57.2578 6.29852C57.0542 6.17044 56.8564 6.08894 56.6645 6.05983C56.4725 6.03072 56.298 6.04819 56.1351 6.1064C55.978 6.17044 55.8501 6.27524 55.757 6.42078C55.6814 6.54304 55.6407 6.6653 55.6465 6.79338C55.6465 6.91564 55.6814 7.0379 55.7395 7.15433C55.7977 7.27077 55.8617 7.38138 55.9431 7.48035C56.0246 7.57933 56.0944 7.67247 56.17 7.74816L56.5598 8.16733C56.6586 8.27212 56.7633 8.4002 56.8797 8.55157C56.9902 8.70294 57.0833 8.86595 57.1589 9.04642C57.2345 9.2269 57.2694 9.41902 57.2636 9.62278C57.2636 9.82655 57.188 10.0361 57.0484 10.2515C56.8913 10.5019 56.6819 10.6824 56.426 10.8046C56.17 10.921 55.8792 10.9618 55.5592 10.9269C55.2393 10.8861 54.8961 10.758 54.547 10.531C54.2155 10.3214 53.9653 10.0885 53.7966 9.83237C53.6221 9.57621 53.5291 9.30841 53.5116 9.02896C53.4941 8.74951 53.5581 8.48171 53.6977 8.21973L54.2736 8.5865C54.1806 8.76698 54.1457 8.94745 54.1806 9.12793C54.2097 9.30841 54.2911 9.47142 54.4132 9.62861C54.5354 9.7858 54.6925 9.9197 54.8728 10.0361C55.088 10.17 55.2974 10.2574 55.5127 10.2923C55.7279 10.3272 55.9199 10.3156 56.1002 10.2574C56.2805 10.1991 56.4201 10.0769 56.5248 9.91388C56.6237 9.76251 56.6586 9.61114 56.6354 9.45977C56.6121 9.30841 56.5481 9.16286 56.4434 9.01149C56.3445 8.86595 56.2224 8.71458 56.0886 8.56903L55.6232 8.05089C55.3265 7.71905 55.1404 7.39303 55.0473 7.06701C54.9601 6.74098 55.0124 6.42661 55.2102 6.11223C55.3731 5.85607 55.5825 5.67559 55.8442 5.5708C56.106 5.466 56.3911 5.4369 56.6935 5.47765C56.996 5.5184 57.2985 5.63484 57.5894 5.82114C57.886 6.00743 58.1187 6.22866 58.2816 6.479C58.4445 6.72934 58.5376 6.99132 58.555 7.25913C58.5725 7.52693 58.5143 7.78309 58.3747 8.01596L57.8337 7.67247H57.8395Z" fill="#121212"/>
<path d="M61.2074 9.20429L61.6087 8.7793L64.5871 11.5679L64.1857 11.9929L62.935 10.8228L59.6193 14.3741L59.1365 13.9258L62.4522 10.3745L61.2015 9.20429H61.2074Z" fill="#121212"/>
<path d="M67.0244 14.4556L62.7721 17.8556L62.3591 17.3374L66.6114 13.9375L67.0244 14.4556Z" fill="#121212"/>
<path d="M64.4589 20.1558L64.1157 19.5561L69.8281 18.5664L70.1655 19.1544L66.4484 23.6081L66.1052 23.0085L69.258 19.3058L69.2347 19.2708L64.4531 20.1558H64.4589ZM66.4251 19.3116L67.8154 21.7277L67.3093 22.0187L65.919 19.6027L66.4251 19.3116Z" fill="#121212"/>
<path d="M73.8071 27.9442L68.6357 29.6442L68.438 29.0387L71.5734 24.8878L71.5559 24.8354L67.4956 26.1686L67.292 25.5398L72.4634 23.8398L72.6612 24.4453L69.5199 28.6137L69.5374 28.6661L73.6093 27.3271L73.8129 27.9442H73.8071Z" fill="#121212"/>
<path d="M69.5259 35.5942L74.9707 35.5068L74.9997 37.4106C75.0056 37.789 74.9474 38.1034 74.8194 38.3537C74.6914 38.604 74.5227 38.7903 74.3075 38.9126C74.0923 39.0349 73.848 39.0989 73.5862 39.1047C73.3535 39.1047 73.1557 39.0698 73.0045 38.9883C72.8532 38.9068 72.7311 38.802 72.638 38.6681C72.5449 38.5342 72.481 38.3945 72.4344 38.2373H72.3821C72.3762 38.4061 72.3181 38.5749 72.2134 38.7438C72.1087 38.9126 71.9574 39.0581 71.7655 39.1746C71.5677 39.291 71.3292 39.3492 71.0383 39.3551C70.7649 39.3551 70.5206 39.3027 70.2996 39.1804C70.0785 39.0581 69.904 38.866 69.7702 38.5982C69.6364 38.3304 69.5666 37.9869 69.5608 37.5561L69.5317 35.5883L69.5259 35.5942ZM70.1192 36.2462L70.1425 37.5561C70.1483 37.9869 70.2356 38.2897 70.4101 38.4701C70.5788 38.6506 70.7824 38.7379 71.0267 38.7321C71.2128 38.7321 71.3815 38.6797 71.5386 38.5808C71.6957 38.4818 71.8178 38.3479 71.9109 38.1732C72.004 37.9986 72.0447 37.789 72.0447 37.5561L72.0214 36.2171L70.1309 36.2462H70.1192ZM72.5857 36.2055L72.6031 37.428C72.6031 37.626 72.6497 37.8065 72.7311 37.9636C72.8125 38.1208 72.9231 38.2489 73.0685 38.3421C73.2139 38.4352 73.3768 38.4818 73.5687 38.476C73.8072 38.476 74.0108 38.3828 74.1737 38.214C74.3366 38.0451 74.418 37.7773 74.4122 37.4164L74.389 36.1705L72.5798 36.1996L72.5857 36.2055Z" fill="#121212"/>
<path d="M69.3103 41.9341L69.4383 41.2529L74.4177 44.2221L74.2897 44.8916L68.5715 45.8522L68.6995 45.171L73.5044 44.4142V44.3734L69.3103 41.9283V41.9341ZM71.3521 42.5803L70.8402 45.3224L70.2643 45.2118L70.7762 42.4697L71.3521 42.5803Z" fill="#121212"/>
<path d="M69.2465 51.1682L66.4775 51.5059L66.7626 50.7956L69.5199 50.4754L69.2465 51.1682ZM67.926 47.8789L72.981 49.8991L72.3004 51.6107C72.1434 52.0066 71.9456 52.3035 71.7129 52.5014C71.4802 52.6994 71.2185 52.8158 70.9392 52.8449C70.66 52.874 70.3692 52.8275 70.0667 52.711C69.77 52.5946 69.5315 52.4257 69.3454 52.2103C69.165 51.9949 69.0545 51.7388 69.0254 51.436C68.9963 51.1333 69.0603 50.784 69.2174 50.3939L69.77 49.0083L70.3226 49.2296L69.7816 50.5919C69.6711 50.8597 69.6246 51.0984 69.642 51.2905C69.6595 51.4826 69.7177 51.6514 69.834 51.7853C69.9503 51.9192 70.1074 52.024 70.311 52.1055C70.5146 52.1871 70.7066 52.222 70.8869 52.2045C71.0672 52.1871 71.2359 52.1172 71.3813 51.9833C71.5326 51.8494 71.6606 51.6456 71.7711 51.372L72.2015 50.295L67.6875 48.496L67.9318 47.8847L67.926 47.8789Z" fill="#121212"/>
<path d="M63.5981 56.3203L67.8445 59.7261L66.6928 61.1641C66.4252 61.4959 66.1459 61.723 65.8551 61.8394C65.5642 61.9558 65.2792 61.9849 64.9942 61.9209C64.7091 61.8627 64.4415 61.7288 64.1914 61.5308C63.9413 61.3329 63.7551 61.0942 63.633 60.8322C63.5108 60.5702 63.4701 60.2792 63.5224 59.9706C63.569 59.662 63.726 59.3418 63.9936 59.01L64.8197 57.9795L65.2734 58.3463L64.4648 59.3593C64.2845 59.5864 64.174 59.8018 64.1449 60.0055C64.11 60.2093 64.1449 60.3956 64.2205 60.5644C64.3078 60.7333 64.4299 60.8904 64.6044 61.0243C64.7731 61.1582 64.9534 61.2514 65.1338 61.298C65.3199 61.3445 65.5061 61.3271 65.6922 61.2456C65.8784 61.1641 66.0703 61.0127 66.2507 60.7798L66.9778 59.8774L63.1851 56.8385L63.5981 56.3261V56.3203Z" fill="#121212"/>
<path d="M59.305 64.3826L56.699 63.3987L57.2807 62.898L59.8751 63.8993L59.3108 64.3826H59.305ZM59.6599 60.8604L63.2025 64.9938L61.8064 66.1931C61.4864 66.4726 61.1723 66.6414 60.8698 66.7113C60.5673 66.7811 60.2881 66.7579 60.0205 66.6531C59.7588 66.5483 59.5203 66.3736 59.3108 66.1291C59.1014 65.8846 58.9676 65.6284 58.9036 65.3548C58.8397 65.0812 58.8687 64.8017 58.9793 64.5165C59.0898 64.2312 59.3108 63.9517 59.6308 63.6781L60.7593 62.7117L61.149 63.1658L60.0322 64.1206C59.8111 64.3127 59.6599 64.4932 59.5842 64.6736C59.5028 64.8541 59.4854 65.0288 59.5261 65.2034C59.5668 65.3723 59.6599 65.5411 59.7995 65.7099C59.9391 65.8729 60.0961 65.9952 60.2648 66.0651C60.4335 66.1349 60.6139 66.1466 60.8058 66.1C60.9978 66.0534 61.2072 65.9312 61.4341 65.739L62.3125 64.9822L59.148 61.2912L59.6482 60.8604H59.6599Z" fill="#121212"/>
<path d="M54.913 64.5986L57.647 69.3085L54.8083 70.9561L54.5174 70.4496L56.7919 69.1338L55.867 67.5445L53.7438 68.7787L53.4529 68.2722L55.5761 67.038L54.6454 65.437L52.336 66.776L52.0452 66.2695L54.9246 64.5986H54.913Z" fill="#121212"/>
<path d="M49.835 67.2891L51.6558 72.4239L49.9223 73.041C49.5209 73.1866 49.1661 73.2273 48.8578 73.1749C48.5495 73.1225 48.2935 72.9944 48.0783 72.7907C47.8689 72.5869 47.706 72.3366 47.6013 72.0338C47.4966 71.7311 47.4558 71.4342 47.4907 71.1431C47.5256 70.852 47.6478 70.59 47.8514 70.3513C48.055 70.1126 48.3575 69.9263 48.753 69.7808L49.9979 69.3383L50.1957 69.8914L48.9741 70.3281C48.7007 70.427 48.4913 70.5551 48.3633 70.7065C48.2295 70.8637 48.1539 71.0325 48.1364 71.2246C48.119 71.4167 48.1481 71.6147 48.2179 71.8184C48.2935 72.0222 48.3924 72.1969 48.5262 72.3308C48.66 72.4647 48.8287 72.552 49.0265 72.5811C49.23 72.616 49.4685 72.5811 49.7478 72.4821L50.8414 72.0921L49.2126 67.5103L49.835 67.2891Z" fill="#121212"/>
<path d="M40.6672 69.5869L40.9348 75.0303L37.654 75.1933L37.6249 74.6111L40.2484 74.4831L40.1553 72.6434L37.7005 72.7656L37.6714 72.1834L40.1262 72.0612L40.0331 70.2098L37.3689 70.3438L37.3398 69.7616L40.6614 69.5986L40.6672 69.5869Z" fill="#121212"/>
<path d="M31.4412 73.3082C31.4412 73.5818 31.5401 73.803 31.7437 73.9835C31.9473 74.164 32.2149 74.2688 32.5407 74.3153C32.7792 74.3444 32.9944 74.3386 33.1805 74.2804C33.3667 74.2222 33.5237 74.1407 33.6401 74.0184C33.7564 73.8962 33.8262 73.7506 33.8495 73.576C33.867 73.4304 33.8495 73.3023 33.7971 73.1917C33.739 73.0811 33.6634 72.9821 33.5645 72.9006C33.4656 72.8191 33.355 72.7493 33.2445 72.691C33.134 72.6328 33.0235 72.5804 32.9304 72.5455L32.401 72.3243C32.2673 72.2661 32.116 72.1962 31.9531 72.1089C31.7903 72.0215 31.6332 71.9109 31.4878 71.777C31.3423 71.6431 31.2318 71.4859 31.1504 71.2938C31.0689 71.1075 31.0457 70.8863 31.0806 70.6301C31.1213 70.339 31.2318 70.0829 31.4121 69.8675C31.5983 69.6521 31.8426 69.4949 32.1509 69.3959C32.4592 69.2969 32.8199 69.2736 33.2387 69.326C33.6226 69.3784 33.9484 69.4832 34.216 69.6462C34.4836 69.8092 34.6813 70.013 34.8093 70.2575C34.9373 70.502 34.9955 70.7757 34.978 71.0726L34.3032 70.9853C34.3149 70.7815 34.2683 70.601 34.1636 70.4555C34.0589 70.3041 33.9193 70.1877 33.7448 70.1003C33.5703 70.013 33.3725 69.9548 33.1573 69.9257C32.9071 69.8908 32.6803 69.9024 32.4709 69.9606C32.2614 70.0188 32.0869 70.112 31.9531 70.2401C31.8193 70.374 31.7379 70.537 31.7088 70.7349C31.6855 70.9154 31.7146 71.0668 31.8019 71.1948C31.8891 71.3229 32.0055 71.4277 32.1625 71.5209C32.3138 71.614 32.4825 71.6955 32.6686 71.777L33.3085 72.0565C33.7157 72.2311 34.024 72.4524 34.2392 72.7085C34.4545 72.9647 34.5417 73.279 34.4894 73.64C34.4487 73.9427 34.3323 74.1931 34.1404 74.3968C33.9484 74.6006 33.7041 74.7461 33.4074 74.8335C33.1107 74.9208 32.7908 74.9441 32.4476 74.8975C32.0986 74.8509 31.7961 74.7461 31.5459 74.589C31.29 74.4318 31.098 74.2338 30.97 73.9951C30.8421 73.7623 30.7897 73.5061 30.813 73.2325L31.447 73.314L31.4412 73.3082Z" fill="#121212"/>
<path d="M27.7299 73.3267L27.5437 73.8798L23.6696 72.5874L23.8557 72.0343L25.4787 72.5757L27.0144 67.9648L27.6426 68.1744L26.1069 72.7853L27.7299 73.3267Z" fill="#121212"/>
<path d="M20.3773 64.8202L20.1039 65.2103L17.5037 65.7808C17.2012 65.8448 16.9394 65.9089 16.73 65.9729C16.5206 66.0311 16.3461 66.1068 16.2007 66.1941C16.0611 66.2815 15.9389 66.3921 15.8458 66.526C15.7353 66.6832 15.6771 66.8462 15.6713 67.0092C15.6655 67.178 15.7062 67.3352 15.7877 67.4924C15.8749 67.6438 15.9971 67.7777 16.1541 67.8941C16.3228 68.0164 16.4973 68.0862 16.6719 68.1037C16.8464 68.1212 17.0151 68.0921 17.1721 68.0164C17.3292 67.9407 17.4688 67.8184 17.591 67.6438L18.1029 68.0047C17.9167 68.2667 17.6957 68.453 17.4397 68.5636C17.1838 68.6742 16.9104 68.715 16.6253 68.6742C16.3403 68.6393 16.0669 68.5287 15.8109 68.3424C15.5492 68.1561 15.3572 67.9407 15.235 67.6904C15.1129 67.44 15.0605 67.178 15.078 66.9102C15.0954 66.6424 15.1827 66.3921 15.3456 66.165C15.4619 66.002 15.6015 65.8623 15.7702 65.7459C15.9389 65.6294 16.16 65.5305 16.4392 65.4431C16.7184 65.3558 17.0791 65.2627 17.527 65.1695L19.2779 64.8086L19.3012 64.7736L17.2361 63.3123L17.5735 62.835L20.3773 64.8202Z" fill="#121212"/>
<path d="M14.5776 59.9765C14.8568 60.2618 15.0197 60.582 15.0604 60.9371C15.1012 61.2923 15.0255 61.6707 14.8278 62.0666C14.6358 62.4624 14.3217 62.87 13.9028 63.2833C13.484 63.6967 13.071 63.9936 12.6696 64.1799C12.2682 64.3662 11.8901 64.4302 11.5295 64.3836C11.1746 64.3371 10.8605 64.1682 10.5813 63.883C10.3021 63.5977 10.145 63.2775 10.1043 62.9224C10.0636 62.5672 10.1392 62.1888 10.337 61.7871C10.5289 61.3854 10.8372 60.9837 11.2561 60.5703C11.6807 60.157 12.0937 59.8543 12.4951 59.6738C12.8965 59.4875 13.2746 59.4176 13.6294 59.47C13.9843 59.5166 14.2984 59.6854 14.5776 59.9707V59.9765ZM14.1588 60.384C13.8796 60.0988 13.5305 60.0115 13.1001 60.1221C12.6696 60.2327 12.2043 60.5354 11.6982 61.0303C11.3608 61.3621 11.1106 61.6765 10.9419 61.9792C10.7732 62.282 10.6918 62.5614 10.6976 62.8176C10.7034 63.0737 10.7965 63.295 10.9827 63.4813C11.2561 63.7607 11.6109 63.848 12.0414 63.7374C12.4718 63.6268 12.943 63.3241 13.4491 62.8292C13.7865 62.4974 14.0366 62.183 14.2053 61.8803C14.374 61.5775 14.4496 61.2981 14.4438 61.0477C14.438 60.7916 14.3391 60.5703 14.153 60.384H14.1588Z" fill="#121212"/>
<path d="M6.23006 58.4047L10.6976 55.2959L11.0757 55.8373L7.17243 58.5503L7.18988 58.5736L8.67323 59.1616L8.12061 59.5458L6.60235 58.9462L6.22424 58.4047H6.23006Z" fill="#121212"/>
<path d="M9.12709 52.6994L3.73466 52.5829L3.69394 52.6004L4.9039 55.1329L4.37454 55.3832L2.86792 52.2336L3.42636 51.9658L8.82461 52.0706L9.12128 52.6935L9.12709 52.6994Z" fill="#121212"/>
<path d="M50.719 53.6302H47.2404C46.5365 53.6302 45.9141 53.1703 45.7105 52.4949L37.6713 25.8368C37.6481 25.7495 37.5666 25.6913 37.4794 25.6913C37.3921 25.6913 37.3107 25.7495 37.2874 25.8368L33.4772 38.4702C37.2699 38.9068 40.2192 42.1321 40.2192 46.0502C40.2192 46.1608 40.1261 46.2539 40.0156 46.2539H31.1271L29.2424 52.4949C29.0388 53.1703 28.4164 53.6302 27.7125 53.6302H24.2339C20.9705 53.6302 18.6669 50.4398 19.6849 47.3368L29.2424 18.3616C29.8881 16.3996 31.7263 15.0723 33.7913 15.0723H41.1674C43.2324 15.0723 45.0648 16.3996 45.7163 18.3616L55.2738 47.3368C56.2976 50.434 53.9882 53.6302 50.7248 53.6302H50.719Z" fill="#121212"/>
<path d="M4.06029 33.5449H2.11157V43.0927H4.06029V33.5449Z" fill="#910811"/>
<path d="M0 35.9794L0 37.9297H6.17773V35.9794H0Z" fill="#910811"/>
</svg>
